<svg xmlns="http://www.w3.org/2000/svg" viewBox="0 0 961 244" width="961" height="244">
	<style>
		tspan { white-space:pre }
		.shp0 { fill: #ffffff } 
		.shp1 { fill: #46acdf } 
	</style>
	<path id="Path 2" class="shp0" d="M76.89,237.49h-16.21l-25.2,-39.01h-15.11v39.01h-13.2v-98.66h32.44c19.81,0 33.13,11.71 33.13,29.15c0,14.68 -8.54,25.61 -22.51,29.23zM39.47,186.05c12.03,0 19.22,-6.7 19.22,-17.93c0,-10.47 -7.44,-16.72 -19.91,-16.72h-18.41v34.65zM171.16,225.19v12.3h-48.74v0h-11.29v-98.66h58.37v12.44h-45.06v29.8h38.97v12.3h-38.97v31.82zM288.98,205.16c5.07,0.03 10.14,0.07 15.21,0.1c-4.43,12.86 -14.24,23.77 -26.57,29.53c-12.32,5.76 -26.99,6.29 -39.7,1.43c-19.81,-7.58 -32.64,-26.97 -32.64,-48.04c0,-24.2 15.51,-43.79 37.89,-49.4c8.94,-2.43 17.98,-2.39 26.34,-0.1c-0.02,0.02 -0.04,0.05 -0.05,0.07c15.34,3.89 27.71,14.57 33.37,29.39l1.17,3.05h-15l-0.58,-1.38c-4.75,-11.24 -15.43,-18.6 -28.55,-19.71c-2.74,-0.3 -5.56,-0.27 -8.42,0.1c-18.92,2.44 -32.1,17.94 -32.1,37.97c0,16.8 9.26,30.37 23.39,35.72c0.03,-0.04 0.07,-0.08 0.1,-0.12c2.24,0.91 4.59,1.57 6.99,2.01c0.5,0.08 1,0.19 1.51,0.26c4.54,0.63 9.29,0.4 14.09,-0.82l0.04,0.12c5.37,-1.24 10.42,-3.63 14.59,-7.26c2.11,-1.83 3.99,-3.94 5.55,-6.26c0.28,-0.42 1.76,-3.47 2.67,-5.3c0.4,-0.8 0.69,-1.37 0.72,-1.37zM517.71,237.49h-16.21l-25.2,-39.01h-15.11v39.01h-13.2v-98.66h32.44c19.82,0 33.13,11.71 33.13,29.15c0,14.68 -8.53,25.61 -22.51,29.23zM480.29,186.05c12.03,0 19.22,-6.7 19.22,-17.93c0,-10.47 -7.44,-16.72 -19.91,-16.72h-18.41v34.65zM954,225.19v12.3h-50.19v0h-9.84v-98.66h58.37v12.44h-45.06v29.8h38.97v12.3h-38.97v31.82zM413.85,138.86v62.65c0,20.74 -12.05,34.85 -31.55,37.33c0,0.01 0,0.04 0,0.04l-1.82,0.19c-0.08,0.01 -0.15,0.02 -0.22,0.02l-0.25,0.02c0,0 -5.58,0.44 -8.11,0.01l-0.24,-0.02c-21.05,-1.62 -33.61,-15.62 -33.61,-37.46v-62.78h13.5v62.65c0,14.57 7.23,23.37 20.36,24.82c0,0 6.02,0.13 8.51,-0.09c12.86,-1.64 19.95,-10.44 19.95,-24.87v-62.51zM592.12,238.79l0,0.01c0,0 -7.63,1.21 -14.26,-0.08l0,-0.03c-17.32,-2.64 -29.22,-14.87 -29.22,-30.45v-2.25h13.64v2.25c0,8.6 6.02,15.22 15.56,17.46c1.76,0.38 7.05,1.34 12.62,0.5c8.16,-1.17 16.21,-5.58 16.21,-14.86c0,-13.1 -11.03,-15.79 -23.82,-18.89c-14.41,-3.5 -30.75,-7.47 -30.75,-28.46c0,-12.76 9.03,-22.64 22.94,-25.77l0,-0.02c0,0 6.82,-1.91 16.18,-0.6c0.17,0.03 0.34,0.04 0.52,0.07c0.11,0.02 0.22,0.03 0.33,0.05v0.01c13.25,2.11 26.3,10.36 26.3,28.01v2.25h-13.92v-2.25c0,-9.85 -6.24,-13.74 -12.59,-15.15c-1.54,-0.32 -6.27,-1.13 -11.37,-0.47v0c-9.14,1.17 -14.61,6.34 -14.61,13.87c0,10.29 8.42,12.91 22.14,16.35c14.45,3.62 32.42,8.12 32.43,30.73c0,14.55 -11.25,25.4 -28.32,27.73z" />
	<path id="Path 3" class="shp1" d="M777.06,78.84l-76.03,102.38l8.43,13.88l72.33,-116.26zM647.31,108.87l49.69,83.22v48.76h14.97v-50.54l-60.37,-81.44zM649.66,96.02c-7.41,0 -13.41,6 -13.41,13.41c0,7.41 6,13.41 13.41,13.41c7.41,0 13.41,-6 13.41,-13.41c0,-7.41 -6.01,-13.41 -13.41,-13.41zM779.25,66.01c-6.09,0 -11.03,4.94 -11.03,11.02c0,6.09 4.94,11.03 11.03,11.03c6.09,0 11.02,-4.94 11.02,-11.03c0,-6.09 -4.94,-11.02 -11.02,-11.02zM591.56,81.51c-4.83,0 -8.76,3.93 -8.76,8.75c0,4.83 3.93,8.75 8.76,8.75c4.83,0 8.75,-3.93 8.75,-8.75c0,-4.82 -3.93,-8.75 -8.75,-8.75zM616.94,32.08c-4.82,0 -8.75,3.93 -8.75,8.75c0,4.83 3.93,8.75 8.75,8.75c4.83,0 8.75,-3.93 8.75,-8.75c0,-4.82 -3.93,-8.75 -8.75,-8.75zM552.79,17.78c-4.83,0 -8.75,3.93 -8.75,8.75c0,4.83 3.93,8.75 8.75,8.75c4.83,0 8.75,-3.93 8.75,-8.75c0,-4.83 -3.93,-8.75 -8.75,-8.75zM661.83,50.11c-4.83,0 -8.75,3.93 -8.75,8.75c0,4.83 3.93,8.75 8.75,8.75c4.82,0 8.75,-3.93 8.75,-8.75c0,-4.83 -3.93,-8.75 -8.75,-8.75zM832.21,9.02c-4.83,0 -8.75,3.93 -8.75,8.75c0,4.83 3.93,8.75 8.75,8.75c4.82,0 8.75,-3.93 8.75,-8.75c0,-4.83 -3.92,-8.75 -8.75,-8.75zM817.07,63.06c-4.83,0 -8.75,3.93 -8.75,8.75c0,4.83 3.93,8.75 8.75,8.75c4.83,0 8.75,-3.93 8.75,-8.75c0,-4.82 -3.93,-8.75 -8.75,-8.75zM749.61,27.93c-4.83,0 -8.75,3.93 -8.75,8.75c0,4.83 3.92,8.75 8.75,8.75c4.83,0 8.75,-3.93 8.75,-8.75c0,-4.83 -3.93,-8.75 -8.75,-8.75zM664.95,59.61l-6.23,-1.5l-12.17,50.57l6.24,1.5zM651.52,106.38l-58.97,-19.17l-1.98,6.1l58.97,19.17zM651.69,107.51l-32.52,-69.46l-65.69,-14.64l-1.4,6.26l62.62,13.96l31.18,66.61zM781.84,75.14l-29.64,-40.35l-5.17,3.79l29.64,40.35zM819.56,73.72l15.72,-53.57l-6.15,-1.81l-14.55,49.58l-33.22,4.5l0.86,6.35z" />
	<path id="Path 4" class="shp0" d="M849.75,138.82l-31.89,78.32l-28.1,-78.32h-14.51l36.57,98.66h13.34l39.67,-98.66z" />
</svg>